# Blender v2.93.5 OBJ File: ''
# www.blender.org
mtllib rock_1.mtl
o stone
v -0.711400 -0.001500 0.303300
v -0.645100 -0.239000 0.789700
v -0.440700 0.204100 0.754300
v -0.438400 0.454800 -0.439500
v -0.782900 0.197300 -0.372400
v -0.568500 0.488200 -0.183500
v -0.114100 -0.385900 -0.874000
v -0.340100 -0.263800 -0.901600
v 0.092600 0.079400 -0.722400
v 0.634700 0.417000 -0.458200
v 0.598300 0.531900 -0.103800
v 0.824600 0.283800 -0.013400
v -0.002400 -0.643300 0.642200
v 0.132700 -0.666200 -0.127400
v 0.474700 -0.648300 0.161100
v 0.099400 0.215500 0.871200
v -0.309400 0.522800 0.706100
v -0.265200 -0.243800 0.958000
v -0.692600 -0.498100 0.193700
v -0.830500 -0.195000 0.194800
v -0.650100 -0.468900 -0.246600
v -0.394700 0.411100 -0.633300
v -0.623300 -0.128300 -0.625700
v 0.389100 -0.646000 -0.589900
v 0.902400 -0.240600 -0.604900
v 0.902300 0.032400 -0.222800
v 0.514700 0.152900 0.615300
v 0.338800 -0.326400 0.874900
v 0.751800 -0.405500 0.450700
v 0.834300 -0.433600 0.042000
v 0.887200 -0.281700 0.259700
v 0.722900 0.173200 0.343800
v 0.644300 0.342900 0.127600
v 0.260400 0.524600 0.340000
v -0.003200 0.585300 0.627900
v -0.502800 0.400600 0.276700
v -0.462600 -0.366000 -0.883000
v -0.609000 -0.574100 -0.538000
v -0.181900 -0.644700 -0.779000
v -0.774200 0.125200 -0.002800
v -0.599200 0.012800 -0.387600
v -0.701800 -0.231600 -0.259700
v -0.864700 -0.061500 0.031400
v -0.342600 0.618600 0.332000
v -0.376700 0.542800 0.559000
v 0.077100 0.799500 0.165100
v -0.158700 0.579100 -0.507800
v -0.137900 0.819500 -0.056000
v 0.731400 -0.536400 -0.576000
v 0.436400 -0.147100 -0.713900
v 0.222100 -0.559100 -0.847700
v 0.495000 -0.596800 0.488900
v 0.259900 0.518200 0.069300
v 0.398400 0.459400 -0.589200
v -0.193800 -0.569800 0.805400
v -0.128400 0.484600 -0.722800
v 0.050900 0.583400 -0.662100
v 0.004600 0.850100 -0.165900
v -0.418400 -0.584000 0.691200
v -0.506500 -0.623900 -0.556500
v -0.581200 -0.443700 0.697700
v 0.367900 0.717800 0.007600
v 0.128200 0.736600 0.035000
v -0.140300 -0.664900 -0.270900
v 0.457500 0.556800 0.039300
v -0.795500 0.018800 -0.228800
v -0.553500 0.171000 -0.497200
v -0.669600 0.162500 -0.504400
v 0.835100 -0.356700 -0.260200
v 0.381500 -0.581100 -0.774000
v 0.635600 -0.547600 -0.718300
v 0.105400 -0.590900 -0.860800
v 0.720300 -0.503700 -0.125900
v 0.867700 -0.363300 -0.623300
v -0.413900 -0.441200 0.936600
v 0.904400 0.073900 -0.021100
v -0.486600 0.259500 0.368100
v -0.442700 0.687300 0.061100
vt 0.231900 0.799000
vt 0.366900 0.745900
vt 0.361000 0.876000
vt 0.814500 0.443400
vt 0.734600 0.524400
vt 0.742600 0.417500
vt 0.504800 0.955500
vt 0.438900 0.936900
vt 0.537200 0.818500
vt 0.275500 0.403200
vt 0.334100 0.492300
vt 0.253600 0.531100
vt 0.129700 0.379700
vt 0.234400 0.196800
vt 0.294500 0.302100
vt 0.569800 0.244100
vt 0.431200 0.238000
vt 0.577400 0.072400
vt 0.634100 0.671300
vt 0.550400 0.669600
vt 0.651700 0.553900
vt 0.434400 0.380300
vt 0.634900 0.343900
vt 0.580500 0.436500
vt 0.342600 0.103400
vt 0.066100 0.409800
vt 0.165100 0.492200
vt 0.681300 0.317900
vt 0.725100 0.172300
vt 0.846700 0.247400
vt 0.066900 0.606100
vt 0.117300 0.651700
vt 0.110700 0.718700
vt 0.259000 0.641800
vt 0.292200 0.724400
vt 0.296100 0.570400
vt 0.395100 0.625200
vt 0.487500 0.312400
vt 0.049400 0.843900
vt 0.229600 0.919700
vt 0.105400 0.936900
vt 0.661200 0.367400
vt 0.697500 0.481700
vt 0.851000 0.147100
vt 0.918500 0.059000
vt 0.926700 0.151200
vt 0.145900 0.824500
vt 0.528200 0.486300
vt 0.587300 0.543000
vt 0.523100 0.624600
vt 0.858000 0.815100
vt 0.885300 0.757200
vt 0.923400 0.925600
vt 0.881000 0.393600
vt 0.803000 0.282600
vt 0.431200 0.138900
vt 0.637900 0.859200
vt 0.601400 0.982000
vt 0.827500 0.155800
vt 0.270800 0.387200
vt 0.403100 0.305400
vt 0.345300 0.401500
vt 0.976600 0.800500
vt 0.374400 0.551200
vt 0.472700 0.559600
vt 0.724300 0.046100
vt 0.598600 0.699500
vt 0.668300 0.690900
vt 0.767100 0.854100
vt 0.816600 0.551100
vt 0.852400 0.613800
vt 0.719700 0.569000
vt 0.980400 0.715600
vt 0.894700 0.703400
vt 0.980900 0.549700
vt 0.662300 0.020300
vt 0.456900 0.726200
vt 0.949200 0.386500
vt 0.850600 0.274000
vt 0.022200 0.353200
vt 0.002000 0.201300
vt 0.114400 0.028200
vt 0.921600 0.567100
vt 0.061900 0.703200
vt 0.003200 0.681300
vt 0.051000 0.635700
vt 0.682900 0.643800
vt 0.725300 0.747300
vt 0.178900 0.134900
vt 0.812500 0.053200
vt 0.013300 0.730200
vt 0.042500 0.912800
vt 0.014900 0.974600
vt 0.027400 0.837900
vt 0.435500 0.495600
vt 0.366600 0.454500
vt 0.367800 0.422500
vt 0.065900 0.516400
vt 0.491500 0.444900
vt 0.359900 0.055900
vt 0.419800 0.093800
vt 0.298000 0.008100
vt 0.216200 0.002000
vt 0.456100 0.707300
vt 0.843200 0.941500
vt 0.036600 0.575900
vt 0.387700 0.252100
vt 0.035600 0.416000
vt 0.462800 0.142400
vt 0.503400 0.006500
vt 0.911600 0.489100
vt 0.420700 0.325200
vt 0.190100 0.544200
vt 0.866100 0.551100
vt 0.841500 0.496300
vt 0.068700 0.403200
vt 0.411000 0.431600
vt 0.858400 0.473800
vt 0.585000 0.002000
vt 0.949700 0.085000
vt 0.306800 0.966100
vt 0.249700 0.990100
vt 0.364000 0.533800
vt 0.258000 0.887200
vt 0.499500 0.689000
vt 0.870000 0.711500
vt 0.712200 0.951600
vt 0.200700 0.739700
vt 0.153000 0.769000
vt 0.412700 0.514300
vt 0.084400 0.958300
vt 0.780200 0.534000
vt 0.764800 0.888000
vt 0.047200 0.569100
vt 0.005900 0.447700
vt 0.088500 0.023300
vt 0.817400 0.022500
vt 0.442100 0.527500
vt 0.469700 0.466400
vt 0.002000 0.412300
vt 0.171400 0.997100
vt 0.722600 0.329800
vt 0.886200 0.221600
vt 0.573200 0.996300
vt 0.795100 0.862000
vt 0.318700 0.438700
vt 0.647100 0.975400
vt 0.349800 0.967900
vt 0.922300 0.735100
vt 0.327200 0.022300
vt 0.857300 0.987000
vt 0.062900 1.001900
vt 0.018400 0.811400
vt 0.925800 0.437400
vn -0.8362 0.4276 0.3434
vn -0.8580 0.4058 0.3151
vn -0.8714 0.4179 0.2571
vn -0.4957 0.7878 -0.3656
vn -0.5708 0.6249 -0.5326
vn -0.5248 0.7590 -0.3854
vn 0.2373 0.2040 -0.9498
vn 0.2448 0.1880 -0.9512
vn 0.2325 0.1795 -0.9559
vn 0.8294 0.5143 -0.2183
vn 0.6914 0.6741 0.2597
vn 0.8199 0.5542 0.1435
vn -0.1636 -0.9840 0.0709
vn 0.0187 -0.9998 0.0008
vn 0.2922 -0.9546 0.0588
vn 0.2391 0.3719 0.8970
vn -0.0865 0.4220 0.9025
vn -0.0865 0.0073 0.9962
vn -0.9169 -0.3825 -0.1139
vn -0.9000 -0.3980 -0.1777
vn -0.9752 -0.1889 -0.1157
vn -0.6654 0.3621 -0.6528
vn -0.5272 0.3625 -0.7685
vn -0.8807 0.1718 -0.4413
vn 0.1601 -0.9745 -0.1574
vn 0.9971 -0.0755 0.0022
vn 0.9770 0.1765 -0.1193
vn 0.6044 0.2826 0.7449
vn 0.4303 -0.2605 0.8643
vn 0.6680 -0.2572 0.6983
vn 0.9300 -0.3641 -0.0500
vn 0.9442 -0.1400 0.2983
vn 0.8406 -0.0735 0.5367
vn 0.7247 0.4811 0.4933
vn 0.6705 0.5367 0.5123
vn 0.5473 0.7445 0.3823
vn 0.6267 0.7296 0.2737
vn 0.2394 0.5791 0.7793
vn -0.8339 0.5281 0.1605
vn -0.8544 0.4011 0.3302
vn -0.8721 0.4426 0.2088
vn -0.7154 0.2304 -0.6596
vn -0.9572 -0.1238 -0.2617
vn -0.2363 -0.4598 -0.8560
vn -0.2115 -0.4853 -0.8484
vn -0.0753 -0.3032 -0.9499
vn -0.8319 0.5130 0.2114
vn -0.9513 0.2519 -0.1775
vn -0.9559 -0.0663 -0.2861
vn -0.8908 -0.3430 -0.2981
vn -0.2803 0.9149 0.2906
vn -0.1954 0.9385 0.2846
vn -0.2080 0.9290 0.3059
vn -0.4031 0.8193 -0.4078
vn -0.4812 0.7835 -0.3930
vn 0.3476 -0.9359 -0.0569
vn 0.2522 0.2686 -0.9297
vn 0.2034 0.1658 -0.9650
vn 0.4240 -0.6522 0.6284
vn 0.3499 -0.9255 0.1450
vn 0.5434 -0.8363 0.0723
vn 0.6048 -0.7768 0.1755
vn -0.1696 0.9216 0.3491
vn 0.6718 0.7407 -0.0059
vn 0.7679 0.6295 0.1185
vn 0.2565 -0.7361 0.6263
vn 0.3042 0.2163 -0.9277
vn 0.4999 0.3774 -0.7795
vn 0.2938 0.1780 -0.9391
vn 0.3103 0.9132 -0.2642
vn 0.4026 0.8496 -0.3408
vn 0.4537 0.8349 -0.3116
vn -0.8821 -0.4022 0.2452
vn -0.8468 -0.4734 0.2426
vn -0.8291 -0.4256 0.3626
vn 0.1986 -0.5206 0.8304
vn 0.2585 0.1400 -0.9558
vn -0.3422 0.8290 -0.4424
vn -0.4497 0.7920 -0.4129
vn -0.0794 -0.9938 0.0776
vn -0.3937 -0.9175 0.0563
vn -0.2401 -0.9706 0.0181
vn -0.7489 -0.5701 0.3379
vn 0.0993 0.2865 0.9529
vn 0.1235 0.4066 0.9052
vn 0.1335 0.7371 0.6625
vn 0.4735 0.8168 -0.3295
vn 0.4340 0.8263 -0.3590
vn -0.0625 -0.9980 0.0042
vn -0.4411 -0.6743 -0.5922
vn 0.0724 0.3542 0.9324
vn -0.6949 -0.5874 -0.4148
vn -0.4536 -0.7137 -0.5338
vn -0.6766 -0.6334 -0.3754
vn 0.0473 0.1807 -0.9824
vn 0.0709 -0.1301 -0.9890
vn 0.0810 -0.3010 -0.9502
vn 0.9196 -0.3917 0.0304
vn -0.8978 0.3427 -0.2768
vn 0.0930 -0.9377 -0.3348
vn 0.2754 -0.9418 -0.1929
vn 0.1461 -0.9283 -0.3419
vn -0.0062 -0.9957 -0.0927
vn 0.6021 0.6873 0.4064
vn -0.1847 0.9470 0.2627
vn 0.1195 0.8941 0.4316
vn 0.5484 -0.8348 0.0487
vn 0.8748 -0.4845 -0.0017
vn -0.3527 0.2696 0.8960
vn -0.3914 0.2333 0.8902
vn -0.5020 -0.7085 0.4960
vn -0.3794 0.3151 -0.8699
vn 0.9784 0.1744 0.1113
vn -0.4880 -0.7814 0.3890
vn -0.1986 -0.8455 0.4957
vn -0.1190 -0.9895 0.0815
vn -0.8658 0.4096 -0.2876
vn -0.4179 0.8418 -0.3418
vn -0.0431 -0.0755 0.9962
vn 0.0142 -0.1959 -0.9805
vn -0.8927 0.3776 0.2459
vn -0.8106 0.5341 0.2403
vn 0.6339 0.5678 0.5251
vn -0.8289 0.3920 0.3990
vn 0.2497 0.1354 -0.9588
vn 0.3816 0.8286 -0.4097
vn 0.2335 0.1168 -0.9653
vn -0.8691 0.3265 0.3716
vn -0.8559 0.4121 0.3123
vn 0.6649 0.4823 0.5703
vn -0.7829 -0.3557 -0.5104
vn -0.5446 0.5676 -0.6174
vn 0.3497 0.0419 -0.9359
vn 0.7451 -0.6622 -0.0794
vn 0.7497 -0.6382 -0.1752
vn -0.4301 -0.9017 0.0445
vn -0.4359 -0.6768 -0.5932
vn 0.7917 0.6107 0.0162
vn 0.7197 0.6924 -0.0517
vn 0.6649 -0.6322 -0.3978
vn -0.8780 0.3914 0.2757
vn -0.4879 0.7828 -0.3862
vn -0.2121 -0.2873 -0.9341
vn 0.1289 0.2029 -0.9707
vn -0.2671 0.9061 0.3281
vn 0.0928 -0.5850 -0.8057
vn 0.3279 0.0888 -0.9405
vn -0.8121 0.3990 0.4258
vn -0.1473 0.9689 0.1988
vn 0.2281 -0.8683 -0.4405
vn -0.0816 0.9824 0.1682
vn -0.6127 -0.5506 -0.5670
vn 0.0550 0.4217 0.9051
vn -0.3479 0.8392 -0.4179
usemtl Default_OBJ
s 1
f 1/1/1 2/2/2 3/3/3
f 4/4/4 5/5/5 6/6/6
f 7/7/7 8/8/8 9/9/9
f 10/10/10 11/11/11 12/12/12
f 13/13/13 14/14/14 15/15/15
f 16/16/16 17/17/17 18/18/18
f 19/19/19 20/20/20 21/21/21
f 22/22/22 8/23/23 23/24/24
f 15/15/15 14/14/14 24/25/25
f 25/26/26 10/10/10 26/27/27
f 27/28/28 28/29/29 29/30/30
f 30/31/31 31/32/32 29/33/33
f 29/33/33 32/34/34 27/35/35
f 27/35/35 33/36/36 34/37/37
f 16/16/16 35/38/38 17/17/17
f 5/39/39 36/40/40 6/41/41
f 37/42/42 38/43/43 23/24/24
f 39/44/44 37/45/45 7/46/46
f 40/47/47 36/40/40 5/39/39
f 41/48/48 42/49/49 43/50/50
f 44/51/51 45/52/52 46/53/53
f 47/54/54 6/6/6 48/55/55
f 24/25/25 49/56/56 15/15/15
f 50/57/57 51/58/58 9/9/9
f 28/29/29 52/59/59 29/30/30
f 52/60/60 30/61/61 29/62/62
f 45/52/52 35/63/63 46/53/53
f 34/37/37 53/64/64 46/65/65
f 13/66/66 52/59/59 28/29/29
f 18/18/18 28/29/29 16/16/16
f 54/67/67 10/68/68 25/69/69
f 10/70/70 54/71/71 11/72/72
f 20/73/73 19/74/74 2/75/75
f 18/18/18 55/76/76 28/29/29
f 8/8/8 56/77/77 9/9/9
f 57/78/78 47/54/54 58/79/79
f 59/80/80 19/81/81 60/82/82
f 61/83/83 2/75/75 19/74/74
f 53/84/84 62/85/85 63/86/86
f 62/87/87 54/71/71 58/88/88
f 59/80/80 60/82/82 64/89/89
f 60/90/90 37/45/45 39/44/44
f 53/84/84 65/91/91 62/85/85
f 34/37/37 33/36/36 53/64/64
f 66/92/92 41/93/93 43/94/94
f 4/95/95 67/96/96 68/97/97
f 25/26/26 26/27/27 69/98/98
f 23/24/24 42/49/49 41/48/48
f 22/22/22 23/24/24 67/99/99
f 27/28/28 16/16/16 28/29/29
f 27/28/28 35/38/38 16/16/16
f 70/100/100 71/101/101 24/25/25
f 72/102/102 24/25/25 39/103/103
f 35/104/104 34/37/37 46/65/65
f 35/104/104 27/35/35 34/37/37
f 19/19/19 21/21/21 38/43/43
f 23/24/24 38/43/43 42/49/49
f 48/105/105 44/51/51 46/53/53
f 58/106/106 63/86/86 62/85/85
f 15/15/15 49/56/56 73/107/107
f 69/98/98 74/108/108 25/26/26
f 3/109/109 2/110/110 18/18/18
f 2/75/75 61/83/83 75/111/111
f 47/54/54 4/4/4 6/6/6
f 22/22/22 56/112/112 8/23/23
f 32/34/34 29/33/33 31/32/32
f 30/31/31 76/113/113 31/32/32
f 75/111/111 59/114/114 55/115/115
f 64/89/89 55/116/116 59/80/80
f 67/99/99 4/117/117 22/22/22
f 22/118/118 4/4/4 47/54/54
f 31/32/32 76/113/113 32/34/34
f 26/27/27 10/10/10 12/12/12
f 75/119/119 18/18/18 2/110/110
f 18/18/18 75/119/119 55/76/76
f 23/24/24 8/23/23 37/42/42
f 8/120/120 7/46/46 37/45/45
f 32/34/34 76/113/113 12/12/12
f 27/35/35 32/34/34 33/36/36
f 45/121/121 44/122/122 36/40/40
f 17/17/17 3/109/109 18/18/18
f 60/82/82 39/103/103 64/89/89
f 14/14/14 39/103/103 24/25/25
f 65/123/123 12/12/12 11/11/11
f 33/36/36 32/34/34 12/12/12
f 1/1/1 3/3/3 77/124/124
f 77/124/124 3/3/3 45/121/121
f 30/61/61 52/60/60 15/15/15
f 13/13/13 15/15/15 52/60/60
f 56/77/77 57/125/125 9/9/9
f 54/71/71 57/126/126 58/88/88
f 20/20/20 43/50/50 42/49/49
f 1/1/1 36/40/40 40/47/47
f 55/76/76 13/66/66 28/29/29
f 57/125/125 54/67/67 9/9/9
f 9/9/9 54/67/67 25/69/69
f 77/124/124 45/121/121 36/40/40
f 1/1/1 77/124/124 36/40/40
f 71/127/127 50/57/57 25/69/69
f 9/9/9 25/69/69 50/57/57
f 2/2/2 1/1/1 20/128/128
f 43/129/129 20/128/128 1/1/1
f 64/89/89 14/14/14 13/13/13
f 64/89/89 39/103/103 14/14/14
f 65/123/123 11/11/11 62/130/130
f 11/72/72 54/71/71 62/87/87
f 66/92/92 43/94/94 5/131/131
f 5/5/5 4/4/4 68/132/132
f 71/127/127 25/69/69 74/133/133
f 73/134/134 49/135/135 74/108/108
f 38/136/136 60/82/82 19/81/81
f 38/137/137 37/45/45 60/90/90
f 46/65/65 63/138/138 58/139/139
f 46/65/65 53/64/64 63/138/138
f 24/25/25 71/101/101 49/56/56
f 71/140/140 74/108/108 49/135/135
f 59/114/114 61/83/83 19/74/74
f 59/114/114 75/111/111 61/83/83
f 78/141/141 6/41/41 36/40/40
f 6/6/6 78/142/142 48/55/55
f 15/15/15 73/107/107 30/61/61
f 69/98/98 26/27/27 30/31/31
f 72/143/143 39/44/44 7/46/46
f 72/144/144 7/7/7 9/9/9
f 44/122/122 78/141/141 36/40/40
f 44/51/51 48/105/105 78/145/145
f 68/97/97 67/96/96 41/146/146
f 67/99/99 23/24/24 41/48/48
f 13/13/13 55/116/116 64/89/89
f 50/57/57 71/127/127 70/147/147
f 45/121/121 3/3/3 17/148/148
f 17/149/149 35/63/63 45/52/52
f 21/21/21 20/20/20 42/49/49
f 38/43/43 21/21/21 42/49/49
f 70/100/100 24/25/25 51/150/150
f 70/147/147 51/58/58 50/57/57
f 30/31/31 26/27/27 76/113/113
f 26/27/27 12/12/12 76/113/113
f 48/105/105 46/53/53 58/151/151
f 58/79/79 47/54/54 48/55/55
f 68/152/152 66/92/92 5/131/131
f 68/152/152 41/93/93 66/92/92
f 72/102/102 51/150/150 24/25/25
f 72/144/144 9/9/9 51/58/58
f 30/31/31 73/134/134 69/98/98
f 73/134/134 74/108/108 69/98/98
f 5/39/39 43/129/129 40/47/47
f 43/129/129 1/1/1 40/47/47
f 33/36/36 12/12/12 65/123/123
f 53/84/84 33/153/153 65/91/91
f 56/154/154 47/54/54 57/78/78
f 56/154/154 22/118/118 47/54/54
